<svg width="59" height="59" viewBox="0 0 59 59" fill="none" xmlns="http://www.w3.org/2000/svg">
<path d="M29.5 0C13.2092 0 0 13.5516 0 30.2507C0 43.6178 8.45491 54.9437 20.1759 58.9473C20.3403 58.983 20.5081 59.0007 20.6763 59C21.7694 59 22.1908 58.1966 22.1908 57.4986C22.1908 56.7743 22.1645 54.8779 22.1513 52.3493C21.1755 52.5781 20.1772 52.6973 19.175 52.7049C13.4989 52.7049 12.2083 48.2931 12.2083 48.2931C10.865 44.8031 8.92902 43.8681 8.92902 43.8681C6.36094 42.0638 8.91585 42.0111 9.11339 42.0111H9.12656C12.0897 42.2745 13.6438 45.1455 13.6438 45.1455C15.1188 47.7268 17.0942 48.4511 18.8589 48.4511C20.0258 48.4278 21.1746 48.1585 22.2304 47.6609C22.4938 45.7118 23.2576 44.3817 24.1004 43.6178C17.5551 42.854 10.6674 40.2596 10.6674 28.6703C10.6674 25.3647 11.8132 22.6649 13.6964 20.5578C13.3935 19.794 12.3795 16.7123 13.9862 12.5507C14.2017 12.4991 14.4232 12.4769 14.6446 12.4848C15.7114 12.4848 18.1214 12.8931 22.0987 15.6587C26.9313 14.3066 32.0423 14.3066 36.875 15.6587C40.8522 12.8931 43.2623 12.4848 44.329 12.4848C44.5505 12.4769 44.772 12.4991 44.9875 12.5507C46.5942 16.7123 45.5801 19.794 45.2772 20.5578C47.1605 22.6781 48.3062 25.3779 48.3062 28.6703C48.3062 40.2859 41.4054 42.8408 34.8337 43.5915C35.8873 44.5265 36.8355 46.3703 36.8355 49.1886C36.8355 53.2317 36.796 56.4977 36.796 57.4855C36.796 58.1966 37.2042 59 38.2973 59C38.4743 59.0008 38.6508 58.9831 38.8241 58.9473C50.5583 54.9437 59 43.6047 59 30.2507C59 13.5516 45.7908 0 29.5 0Z" fill="#8D734B"/>
</svg>
