<svg width="56" height="81" viewBox="0 0 56 81" fill="none" xmlns="http://www.w3.org/2000/svg">
<path d="M48.8602 27.8891C51.1324 27.5925 53.3328 35.2354 53.4591 38.418C53.5831 41.601 51.4474 42.29 52.6901 43.1486C53.932 44.0058 54.5084 46.0912 55.6942 49.3137C56.7498 52.1767 53.7062 51.6401 53.0857 51.6401C52.4643 51.6401 52.9617 52.8643 53.7062 53.7213C54.4523 54.5785 51.9527 55.3262 52.4643 55.3128C53.0841 55.298 53.7252 56.4033 52.8567 56.8925C51.9867 57.3834 51.4695 58.8643 51.8422 60.0878C52.2156 61.312 50.226 62.4592 46.8722 61.4341C43.4109 60.3746 41.5279 62.4133 42.1508 63.759C42.1508 63.759 36.3092 64.3718 32.8298 60.577C32.8298 60.577 28.2325 30.5832 48.8602 27.8891" fill="#FA9652"/>
<path d="M42.1509 63.7591C42.1509 63.7591 35.7479 63.3282 32.3925 58.6708L29.8257 61.9692C29.8257 61.9692 35.0579 67.8629 43.0707 67.4949L42.1509 63.7591" fill="#8D734B"/>
<path d="M52.6901 43.1487C53.6068 43.7795 54.1594 45.0823 54.8644 47.0153V47.0183C54.8644 47.0183 50.9579 47.9502 49.915 47.9502C45.6571 47.9502 34.0078 47.9502 34.0078 47.9502V41.4929L34.0267 41.4291C34.1088 41.1629 34.1933 40.8977 34.2817 40.6342L34.3378 40.4753C34.4262 40.2155 34.5202 39.9567 34.6165 39.7L34.6473 39.6176C34.8747 39.0209 35.1234 38.4321 35.3965 37.8572L35.3997 37.8496C35.4115 37.8293 36.9211 35.4215 39.0686 32.5256C41.4379 30.157 44.6134 28.4443 48.8602 27.8892C50.9374 27.6176 52.9515 33.9755 53.381 37.5027C53.3967 37.6871 53.4386 38.114 53.4536 38.3349L53.4591 38.4181C53.5831 41.601 51.4474 42.2901 52.6901 43.1487Z" fill="#8D734B"/>
<path d="M48.6494 27.3602C50.1053 28.6287 46.0661 32.6359 39.8053 38.0076C33.5452 43.3796 37.9886 49.6264 33.5176 54.1119C29.045 58.5976 32.0901 63.2316 23.4078 67.0617C16.8959 69.9332 19.0126 74.752 19.0126 74.752C19.0126 74.752 12.8227 71.2853 14.1018 65.8343C15.4274 60.1875 15.4952 59.0354 14.5194 55.6256C13.5436 52.2165 12.5677 47.4601 15.6587 40.7321C18.7473 34.0034 20.0492 29.5177 24.926 24.7117C29.9103 19.803 40.6619 20.3979 48.6494 27.3602Z" fill="#8D734B"/>
<path d="M52.2828 40.8216C52.0807 41.0586 51.6599 41.209 50.3745 40.8216C49.1776 40.4613 46.4728 41.8458 46.4728 41.8458C46.4728 41.8458 47.9468 39.8813 50.3745 39.8813C52.8023 39.8813 52.2828 40.8216 52.2828 40.8216" fill="#8D734B"/>
<path d="M47.0498 43.4085C47.0498 43.4085 49.5187 43.1932 50.7108 43.5212L51.0187 41.8633C51.0187 41.8633 48.5033 42.4123 47.0498 43.4085" fill="#FADE99"/>
<path d="M51.3812 42.1928C51.3812 42.1928 51.2801 43.6317 50.9288 43.6806C50.5751 43.7314 50.1969 42.5683 50.4874 42.1819C50.7756 41.7954 51.3812 42.1928 51.3812 42.1928Z" fill="#8D734B"/>
<path d="M47.8954 43.3674C47.8954 43.3674 49.9466 43.4528 51.0187 43.7739V43.5151C51.0187 43.5151 49.9387 43.0235 47.8954 43.3674Z" fill="#8D734B"/>
<path d="M46.824 43.4078C46.2627 43.9887 48.6794 41.9625 51.3811 42.1928C51.3811 42.1928 51.5296 41.8917 51.2043 41.6623C51.2043 41.6623 48.5941 41.5705 46.824 43.4078Z" fill="#8D734B"/>
<path d="M49.0347 49.7874C48.2531 49.757 47.417 49.7974 46.6093 49.8797C45.7946 49.9645 44.9845 50.1015 44.1895 50.3014C42.6041 50.7013 41.0456 51.3545 39.7863 52.4504C40.913 51.2224 42.4336 50.3658 44.0189 49.7756C44.8171 49.4784 45.6398 49.2469 46.4727 49.064C47.3136 48.8844 48.1426 48.7483 49.0331 48.686L49.0347 49.7874" fill="#8D734B"/>
<path d="M47.2133 51.3646C46.7578 51.3351 46.2533 51.3477 45.774 51.3866C45.2885 51.4263 44.8021 51.4971 44.3237 51.6068C43.3723 51.8228 42.432 52.1932 41.6606 52.8354C42.3215 52.0826 43.231 51.5445 44.1832 51.1687C44.6624 50.9782 45.1574 50.8275 45.6603 50.7084C46.168 50.5877 46.6654 50.496 47.2125 50.4477L47.2133 51.3646Z" fill="#8D734B"/>
<path d="M42.1508 63.759C42.1446 63.7326 42.1322 63.7037 42.1152 63.6718C42.1229 63.6937 42.1322 63.7162 42.1415 63.738C42.1438 63.7426 42.1454 63.7466 42.1477 63.7511C42.1485 63.7536 42.15 63.7566 42.1508 63.759Z" fill="#E3D7BA"/>
<path d="M42.1146 63.6719C41.7096 62.5938 42.8347 61.141 45.0406 61.1394C42.8339 61.141 41.7096 62.5938 42.1146 63.6719Z" fill="#E3D7BA"/>
<path d="M42.1146 63.6719C41.7095 62.5938 42.8338 61.141 45.0405 61.1394C45.0413 61.1394 45.0421 61.1394 45.0429 61.1394C45.5182 61.1394 46.044 61.2072 46.6164 61.3603C45.9248 61.1579 43.932 60.5551 41.839 59.7579V59.7573L41.8272 59.7558C40.0468 59.0768 38.1962 58.2585 37.0072 57.4278C35.0326 55.8713 34.8155 54.3685 34.7934 54.1347C34.9323 56.681 36.1577 58.2376 37.2685 58.7237C38.3486 59.1925 39.4744 60.2225 39.5565 60.2988C39.6836 60.5108 39.7713 60.7038 39.7863 60.8538C39.8755 61.7656 41.8035 63.1113 42.1146 63.6719" fill="#DF7E3C"/>
<path d="M46.8722 61.4341C46.8619 61.431 46.8517 61.428 46.8422 61.425C46.8383 61.424 46.8351 61.4226 46.8311 61.4216C46.8288 61.421 46.8264 61.4202 46.824 61.4195C46.7538 61.3982 46.6851 61.3788 46.6164 61.3603C46.7759 61.4071 46.8659 61.4326 46.8722 61.4341" fill="#E3D7BA"/>
<path d="M46.8422 61.425C46.8383 61.4241 46.8351 61.4226 46.8312 61.4217C46.8351 61.4226 46.8383 61.4241 46.8422 61.425ZM46.8241 61.4196C46.7538 61.3983 46.6851 61.3788 46.6164 61.3603C46.6851 61.3788 46.7538 61.3983 46.8241 61.4196Z" fill="#DF7E3C"/>
<path d="M49.1634 56.7666C49.1634 56.7666 47.8765 54.5957 49.5881 53.4615C49.5881 53.4615 46.8082 54.49 49.1634 56.7666Z" fill="#DF7E3C"/>
<path d="M47.4936 55.6653C47.4936 55.6653 47.3697 54.0763 48.4387 53.6351C48.4387 53.6351 46.8849 53.8341 47.4936 55.6653Z" fill="#DF7E3C"/>
<path d="M14.8786 12.8313C15.0752 13.3557 15.2694 13.8823 15.4581 14.4082C15.0176 13.8318 14.5699 13.2561 14.1151 12.6845C9.14671 11.7782 4.57304 11.9347 4.40408 12.4582C4.22249 13.0258 8.31929 16.2321 12.574 19.1908C13.2443 19.117 13.9186 19.0493 14.5952 18.9869C14.1286 19.1948 13.6635 19.4056 13.2009 19.6186C13.4969 19.8176 13.7938 20.016 14.0899 20.2083C15.1778 20.0883 16.2713 19.9826 17.3695 19.8918C16.6045 20.2034 15.8418 20.5246 15.0839 20.8506C17.1169 22.128 19.0828 23.1871 20.7116 23.6119C22.1145 23.9773 23.6557 24.5686 25.1913 25.2282C26.0021 25.2297 26.8177 25.2413 27.6348 25.2592C27.1761 25.4038 26.7198 25.5494 26.2634 25.6979C28.2964 26.6034 30.2663 27.5671 31.9227 28.1651C32.0372 28.1395 32.1509 28.1146 32.2661 28.0888L32.0577 28.2143C33.9068 28.8629 35.3603 29.0301 36.0495 28.0414C37.1833 26.4338 34.5778 23.9364 31.1971 21.4425C31.1703 21.7606 31.1442 22.0811 31.1166 22.3993C31.0148 21.9848 30.909 21.5695 30.8016 21.1524C29.1239 19.9227 27.2922 18.7001 25.6942 17.5209C25.8853 18.2225 26.0676 18.9231 26.2429 19.6265C25.4818 18.4597 24.6978 17.2992 23.8854 16.1449C21.7687 14.6835 18.3012 13.5082 14.8786 12.8313" fill="#FADE99"/>
<path d="M13.2009 19.6185C13.6636 19.4056 14.1286 19.1947 14.5952 18.9869C13.9186 19.0492 13.2444 19.1169 12.5741 19.1908C11.779 18.6423 10.9926 18.0833 10.2442 17.5349L10.1621 17.4735C9.00306 16.627 7.92853 15.8088 7.02374 15.0824L6.94795 15.0216C5.34602 13.7345 4.30465 12.7483 4.40413 12.4581C4.50203 12.1701 5.94053 11.99 8.05565 12.0444L8.18749 12.227L8.05565 12.0444L8.15354 12.0465C9.34651 12.0817 10.7479 12.1914 12.2346 12.3913L12.3388 12.4053C12.9238 12.4861 13.5152 12.5778 14.1152 12.6845C14.57 13.256 15.0176 13.8317 15.4582 14.4082C15.2695 13.8822 15.0752 13.3557 14.8786 12.8313C15.5134 12.9589 16.1466 13.1044 16.7743 13.2624C17.3127 14.1125 17.8378 14.9657 18.3509 15.8207C18.9518 16.8263 19.5352 17.836 20.1005 18.8486C18.9407 19.0236 17.7904 19.2163 16.6472 19.4241C15.6769 19.6 14.7121 19.7866 13.7552 19.9856C13.5712 19.8628 13.3841 19.7422 13.2009 19.6185Z" fill="#8D734B"/>
<path d="M39.8755 30.3617C39.7824 30.5443 39.6916 30.7272 39.6008 30.9108C29.2431 23.2408 17.7612 17.146 5.53943 12.8423C17.7943 16.9446 29.371 22.8474 39.8755 30.3617Z" fill="#8D734B"/>
<path d="M30.1083 14.2665L30.1424 14.2929L30.1494 14.3503L30.1083 14.2665Z" fill="#FADE99"/>
<path d="M7.66552 3.55843C16.2981 4.74762 24.2556 9.62477 30.1076 14.2666L30.1494 14.3505L30.1423 14.2931C36.141 19.0562 39.9189 23.5614 39.9189 23.563C39.941 24.0351 39.8099 24.4495 39.491 24.7925C38.6067 25.7609 37.064 25.3768 35.166 24.4176C35.2465 24.3827 35.3278 24.3478 35.4099 24.3128C35.2836 24.3234 35.1565 24.3344 35.0302 24.3462C33.3311 23.4697 31.3502 22.1559 29.292 20.8941C29.8028 20.7987 30.3176 20.7052 30.8315 20.6134C29.9536 20.4797 29.078 20.3506 28.204 20.2363C26.6463 19.3105 25.0712 18.4583 23.6146 17.8662C21.9226 17.1786 19.9583 15.7606 17.9537 14.1002C18.8166 13.8559 19.6836 13.6179 20.5544 13.3883C19.3567 13.3333 18.1629 13.2929 16.9755 13.2695C16.6842 13.0207 16.3928 12.7654 16.1047 12.5087C16.6329 12.3437 17.1634 12.1845 17.6963 12.0241C16.9597 11.9961 16.2255 11.9743 15.4904 11.9573C11.336 8.17486 7.38761 4.14575 7.66552 3.55843" fill="#FADE99"/>
<path d="M14.9133 11.4315C14.0835 10.6658 13.2727 9.90235 12.51 9.16492L12.3987 9.0589L12.2842 8.9462C11.4892 8.16987 10.7526 7.42885 10.1075 6.75528L10.0325 6.67812C9.46093 6.07773 8.96433 5.5342 8.5751 5.07055L8.56482 5.0581L8.44956 4.9174L8.35324 4.79894L8.32797 4.76697C7.83768 4.15266 7.58899 3.72246 7.66557 3.55834C12.7911 4.26389 17.6814 6.27125 22.03 8.75571C22.0861 8.88483 22.1437 9.01301 22.1998 9.14306C22.7011 10.3107 23.1851 11.4795 23.647 12.6493C22.3711 12.6757 21.1055 12.721 19.8439 12.7839C18.7725 12.8367 17.7067 12.903 16.6471 12.9817C16.4679 12.8252 16.2831 12.6681 16.1047 12.5086C16.6329 12.3437 17.1634 12.1844 17.6964 12.024C16.9598 11.9961 16.2255 11.9742 15.4905 11.9572C15.2947 11.7831 15.1028 11.6047 14.9133 11.4315" fill="#8D734B"/>
<path d="M42.1043 26.2803C32.6601 17.4835 21.9527 10.0794 10.3136 4.31916C21.9977 9.87744 32.8125 17.0891 42.4138 25.7343C42.3112 25.9172 42.207 26.0983 42.1043 26.2803Z" fill="#8D734B"/>
<path d="M12.3766 19.5043C12.6064 20.0215 12.8306 20.537 13.0517 21.0535C12.5756 20.5015 12.0924 19.9506 11.6021 19.4023C6.56185 18.7745 1.97871 19.1948 1.83896 19.7298C1.69053 20.3107 5.99339 23.2937 10.4384 26.02C11.1079 25.9088 11.7806 25.8021 12.4572 25.7009C11.9993 25.9367 11.5453 26.1746 11.0921 26.4134C11.4016 26.5978 11.7103 26.7798 12.0214 26.9564C13.1046 26.7728 14.1973 26.6039 15.2947 26.4502C14.5431 26.8078 13.797 27.1733 13.0564 27.5428C15.1715 28.7089 17.2085 29.6593 18.8688 29.9937C20.2987 30.2809 21.8793 30.7846 23.4607 31.3589C24.2762 31.313 25.0942 31.2777 25.9177 31.2498C25.4637 31.4208 25.0137 31.5944 24.5668 31.7694C26.6606 32.563 28.6944 33.4167 30.3918 33.9223C30.5063 33.8898 30.6192 33.8569 30.7321 33.826L30.5316 33.9621C32.4249 34.5081 33.8942 34.5928 34.5273 33.5622C35.5719 31.8805 32.8078 29.5246 29.2668 27.2146C29.2597 27.5367 29.2518 27.8587 29.2431 28.1799C29.1168 27.7691 28.9857 27.3587 28.8523 26.947C27.0956 25.8091 25.1866 24.6843 23.512 23.5915C23.7433 24.2869 23.9691 24.9808 24.1863 25.6739C23.3533 24.5467 22.4967 23.4268 21.6148 22.3144C19.4026 20.9688 15.8529 19.988 12.3766 19.5043" fill="#FADE99"/>
<path d="M11.092 26.4134C11.5452 26.1747 11.9992 25.9367 12.4571 25.701C11.7805 25.8022 11.1078 25.9088 10.4383 26.02C9.60932 25.5159 8.78586 25.0003 7.9995 24.4933L7.91739 24.4356C6.70311 23.6522 5.57647 22.8933 4.62352 22.2149L4.54457 22.158C2.86132 20.9579 1.756 20.027 1.8389 19.7298C1.9218 19.4366 3.35397 19.1729 5.48014 19.106L5.62226 19.282L5.48014 19.106L5.57962 19.1015C6.77811 19.0687 8.19135 19.099 9.69775 19.2142L9.80354 19.2218C10.3941 19.271 10.9926 19.3284 11.6021 19.4023C12.0923 19.9507 12.5755 20.5015 13.0516 21.0536C12.8306 20.5371 12.6063 20.0215 12.3766 19.5044C13.0216 19.5968 13.6651 19.7064 14.3054 19.8285C14.8959 20.6501 15.4731 21.4768 16.0384 22.3066C16.7023 23.2822 17.3474 24.263 17.9758 25.2453C16.82 25.4886 15.6768 25.7478 14.543 26.0215C13.579 26.2534 12.6221 26.4976 11.6708 26.752C11.4781 26.6383 11.287 26.5286 11.092 26.4134" fill="#8D734B"/>
<path d="M38.2483 35.5098C38.1449 35.6827 38.0438 35.8583 37.9467 36.0348C27.18 29.0294 15.4052 23.6367 3.00267 20.0509C15.4494 23.4392 27.3293 28.6505 38.2483 35.5098Z" fill="#8D734B"/>
<path d="M10.6468 27.9746C10.8852 28.4212 11.1157 28.87 11.3463 29.3172C10.8852 28.8527 10.4209 28.3899 9.94644 27.9311C5.40672 27.6784 1.3415 28.3316 1.24833 28.8171C1.15359 29.3457 5.18408 31.7485 9.32431 33.9123C9.91566 33.7708 10.5086 33.6362 11.1078 33.5049C10.7138 33.7428 10.323 33.9816 9.9346 34.2244C10.222 34.3696 10.5102 34.5127 10.7968 34.6522C11.7521 34.4209 12.7184 34.2049 13.6887 33.9995C13.0406 34.3659 12.3979 34.7376 11.7584 35.114C13.7227 36.0249 15.5994 36.7498 17.1034 36.9467C18.3974 37.1163 19.8422 37.4708 21.2878 37.8861C22.0134 37.7968 22.7429 37.7166 23.4756 37.6403C23.084 37.8208 22.6932 38.0037 22.3032 38.1864C24.2233 38.7667 26.0921 39.4053 27.6427 39.7529C27.7406 39.7195 27.8401 39.683 27.938 39.6465L27.7674 39.7817C29.4925 40.1537 30.811 40.1397 31.3116 39.1795C32.139 37.6163 29.5225 35.6794 26.2144 33.8315C26.2294 34.1201 26.2413 34.4085 26.2547 34.6965C26.115 34.3371 25.9721 33.977 25.8276 33.6185C24.1877 32.7092 22.4113 31.8208 20.8473 30.9472C21.0992 31.5534 21.3431 32.1602 21.5808 32.7651C20.7668 31.8108 19.9307 30.8604 19.0725 29.9222C17.0142 28.8551 13.7819 28.194 10.6468 27.9746" fill="#FADE99"/>
<path d="M9.93461 34.2244C10.3231 33.9816 10.7139 33.7428 11.1078 33.5049C10.5086 33.6362 9.91566 33.7708 9.32432 33.9123C8.55138 33.5125 7.78633 33.102 7.05208 32.6967L6.97155 32.6509C5.83938 32.0247 4.78617 31.4149 3.89401 30.868L3.81978 30.8215C2.24154 29.8538 1.19544 29.0899 1.24834 28.8172C1.30598 28.551 2.56841 28.2289 4.46325 28.0393L4.60221 28.1885L4.46325 28.0393L4.54932 28.0299C5.6199 27.9263 6.88391 27.8674 8.23478 27.8798H8.32952C8.86165 27.8859 9.4001 27.9007 9.94645 27.9312C10.4209 28.3899 10.8852 28.8527 11.3463 29.3172C11.1157 28.87 10.8852 28.4213 10.6468 27.9746C11.2294 28.018 11.8097 28.0767 12.39 28.1465C12.9679 28.8457 13.5372 29.5481 14.0946 30.2552C14.7467 31.0852 15.3846 31.9204 16.0084 32.7612C14.9923 33.0498 13.9856 33.3484 12.9908 33.6644C12.1445 33.9294 11.3036 34.2049 10.4715 34.4902C10.293 34.4024 10.1115 34.3152 9.93461 34.2244" fill="#8D734B"/>
<path d="M35.1131 41.5083C24.8936 35.7361 13.8325 31.529 2.3087 29.0339C13.8949 31.354 25.0728 35.4064 35.4518 41.0635C35.3358 41.212 35.2189 41.3566 35.1131 41.5083" fill="#8D734B"/>
<path d="M8.9446 37.0097C9.27935 37.3909 9.61252 37.7719 9.94096 38.1554C9.38356 37.8084 8.82143 37.4647 8.25377 37.1248C3.77721 37.9142 -0.0243216 39.4776 0.0001534 39.9708C0.0301551 40.5067 4.51539 41.9253 9.05038 43.0874C9.59515 42.8152 10.1399 42.5485 10.691 42.2838C10.3626 42.6053 10.0405 42.928 9.71833 43.2515C10.031 43.3268 10.3452 43.401 10.6571 43.4709C11.5358 43.0291 12.4208 42.5989 13.3193 42.1765C12.773 42.6806 12.2353 43.1886 11.704 43.7003C13.8285 44.139 15.8237 44.4176 17.3324 44.2666C18.6328 44.1366 20.1202 44.1515 21.6258 44.2262C22.3103 43.9749 23.0004 43.7283 23.6944 43.4879C23.3533 43.7531 23.0185 44.0199 22.6838 44.2866C24.6852 44.4152 26.6558 44.6111 28.2443 44.5947C28.332 44.538 28.4196 44.4811 28.5088 44.4246L28.3723 44.5941C30.1392 44.5614 31.4182 44.2487 31.6787 43.2002C32.1169 41.4905 29.1168 40.2032 25.4637 39.1587C25.5474 39.4363 25.6271 39.714 25.7061 39.9902C25.4866 39.673 25.2631 39.3555 25.0389 39.0389C23.2285 38.5288 21.2942 38.0697 19.566 37.5774C19.9513 38.108 20.3326 38.6415 20.7076 39.1781C19.6907 38.4337 18.6533 37.7027 17.5985 36.9823C15.346 36.4147 12.0466 36.5086 8.9446 37.0097" fill="#FADE99"/>
<path d="M9.71832 43.2515C10.0404 42.9279 10.3626 42.6052 10.691 42.2837C10.1399 42.5484 9.59514 42.8151 9.05038 43.0873C8.20638 42.8741 7.36477 42.6487 6.55551 42.4217L6.46787 42.3952C5.21806 42.0443 4.04958 41.6919 3.05321 41.3622L2.96953 41.3349C1.20575 40.7524 0.0112013 40.2475 0.000148053 39.9707C-0.00774712 39.6984 1.14495 39.0972 2.94347 38.4813L3.11242 38.594L2.94347 38.4813L3.02637 38.4515C4.04327 38.1079 5.25834 37.7624 6.57525 37.4653L6.6692 37.4428C7.18554 37.3301 7.71452 37.2219 8.25377 37.1247C8.82143 37.4647 9.38355 37.8083 9.94095 38.1553C9.61251 37.7718 9.27935 37.3908 8.94459 37.0096C9.52015 36.9168 10.0997 36.843 10.6815 36.7793C11.4079 37.3277 12.1256 37.8816 12.8322 38.4424C13.6635 39.1011 14.4791 39.7683 15.2836 40.4444C14.3638 40.9544 13.4551 41.4764 12.5598 42.0084C11.7987 42.4612 11.0471 42.9209 10.3049 43.3884C10.1099 43.3432 9.91254 43.2967 9.71832 43.2515" fill="#8D734B"/>
<path d="M34.4902 43.6512C34.4326 43.8154 34.3789 43.9824 34.3268 44.1514C23.5215 41.1732 12.3229 39.7507 1.0818 39.9403C12.3261 39.5748 23.5815 40.8247 34.4902 43.6512" fill="#8D734B"/>
<path d="M10.2663 46.3975C10.6287 46.6731 10.9911 46.953 11.3495 47.233C10.7953 47.0246 10.2394 46.8192 9.67888 46.6184C5.88131 48.0902 2.81561 50.1249 2.92456 50.5542C3.04851 51.0194 7.24795 51.4915 11.4474 51.727C11.8769 51.3928 12.308 51.0637 12.7469 50.7353C12.5164 51.0747 12.289 51.4144 12.0632 51.7559C12.353 51.7683 12.6427 51.7778 12.9293 51.7853C13.6217 51.2448 14.326 50.7122 15.0397 50.1854C14.6505 50.7228 14.2668 51.2643 13.8909 51.8066C15.8379 51.8242 17.6443 51.7209 18.9454 51.3281C20.065 50.9875 21.3795 50.7423 22.7162 50.5472C23.2736 50.2072 23.8357 49.8712 24.405 49.5392C24.1531 49.8317 23.9036 50.124 23.6565 50.4172C25.4432 50.1817 27.2117 50.0113 28.606 49.7226L28.8081 49.5266L28.7181 49.7002C30.2663 49.3641 31.3385 48.868 31.3803 47.9002C31.4601 46.3176 28.5886 45.7078 25.1897 45.4232C25.3097 45.6516 25.4313 45.8819 25.5506 46.1122C25.2987 45.8704 25.0468 45.6282 24.7926 45.3903C23.1086 45.2542 21.3227 45.1865 19.716 45.0518C20.1502 45.4541 20.5797 45.857 21.0061 46.2647C19.9773 45.7871 18.9344 45.3204 17.878 44.8723C15.7929 44.7635 12.9072 45.4183 10.2663 46.3975Z" fill="#FADE99"/>
<path d="M12.0632 51.7558C12.289 51.4143 12.5164 51.0746 12.7469 50.7352C12.3079 51.0637 11.8769 51.3933 11.4474 51.7269C10.6657 51.6859 9.88412 51.6346 9.1325 51.5747L9.04883 51.5659C7.88903 51.4741 6.79632 51.3663 5.86154 51.2503L5.78337 51.2402C4.12618 51.0333 2.98533 50.796 2.92454 50.5541C2.86848 50.3169 3.77563 49.5874 5.24966 48.7333L5.4194 48.8032L5.24966 48.7333L5.31678 48.6935C6.14814 48.2137 7.15792 47.6997 8.26324 47.2096L8.34061 47.1737C8.77722 46.9842 9.22331 46.7973 9.67886 46.6184C10.2394 46.8192 10.7952 47.0245 11.3495 47.233C10.991 46.9529 10.6286 46.673 10.2663 46.3975C10.7565 46.2154 11.2539 46.0489 11.7521 45.8919C12.4911 46.2483 13.2214 46.6114 13.9446 46.9823C14.7934 47.4189 15.6326 47.8643 16.4584 48.3186C15.7392 48.9293 15.0349 49.5469 14.3409 50.1683C13.752 50.6997 13.1748 51.2338 12.604 51.7747C12.4224 51.7683 12.244 51.7622 12.0632 51.7558" fill="#8D734B"/>
<path d="M33.2546 47.7697C33.2152 47.9213 33.1781 48.0723 33.1425 48.2233C23.3438 47.5652 13.4875 48.2753 3.87039 50.3395C13.4812 48.1191 23.3746 47.2516 33.2546 47.7697" fill="#8D734B"/>
<path d="M15.5481 55.4639C15.9191 55.5751 16.2918 55.6878 16.6621 55.8006C16.1584 55.8014 15.6546 55.806 15.1525 55.8139C12.6008 58.1185 10.8015 60.6463 11.021 60.9536C11.2618 61.2865 14.7309 60.4005 18.1274 59.328C18.3635 58.9358 18.6043 58.5454 18.8475 58.1535C18.7724 58.4925 18.6982 58.8294 18.6232 59.1661C18.8569 59.0892 19.089 59.0099 19.3188 58.9306C19.6985 58.2959 20.0925 57.6618 20.4944 57.032C20.3523 57.5746 20.2157 58.1154 20.0846 58.6584C21.6313 58.0896 23.0295 57.4673 23.9398 56.7652C24.7199 56.16 25.6839 55.5736 26.681 55.0173C27.0182 54.581 27.36 54.1471 27.7082 53.7138C27.5992 54.021 27.4911 54.3276 27.3869 54.6339C28.7259 53.9113 30.0736 53.2463 31.0897 52.6016C31.1213 52.5292 31.1552 52.4569 31.1876 52.3846L31.1702 52.5477C32.2937 51.8188 32.9869 51.1043 32.7224 50.3265C32.2969 49.0516 29.836 49.4271 27.0553 50.2213C27.2234 50.3659 27.39 50.5115 27.555 50.6585C27.2827 50.5428 27.0079 50.4267 26.7332 50.3131C25.3586 50.7114 23.9241 51.1936 22.6095 51.5679C23.0793 51.7554 23.5427 51.9465 24.0062 52.1409C23.0445 52.0695 22.0742 52.0142 21.1007 51.9768C19.4175 52.5137 17.3347 53.8964 15.5481 55.4639" fill="#FADE99"/>
<path d="M18.6232 59.1661C18.6982 58.8294 18.7724 58.4925 18.8474 58.1534C18.6043 58.5454 18.3635 58.9357 18.1274 59.328C17.4958 59.5294 16.8618 59.723 16.2483 59.901L16.1781 59.919C15.2322 60.1952 14.3353 60.437 13.5592 60.6244L13.4921 60.6399C12.1192 60.973 11.1418 61.1279 11.021 60.9535C10.9025 60.783 11.396 59.9329 12.2968 58.8154L12.4539 58.8209L12.2968 58.8154L12.3387 58.7641C12.8495 58.1355 13.4874 57.4245 14.213 56.7083L14.2635 56.6546C14.5501 56.3754 14.843 56.0937 15.1525 55.8139C15.6546 55.806 16.1583 55.8014 16.6621 55.8006C16.2918 55.6878 15.9191 55.5751 15.548 55.4639C15.8804 55.1744 16.2239 54.893 16.5689 54.6199C17.2613 54.6806 17.9521 54.748 18.639 54.8252C19.4451 54.917 20.2465 55.0172 21.0415 55.1294C20.661 55.8269 20.293 56.527 19.9386 57.2285C19.6362 57.8237 19.3409 58.4217 19.0574 59.0184C18.913 59.0682 18.7677 59.1181 18.6232 59.1661" fill="#8D734B"/>
<path d="M11.7024 60.5022C18.6075 55.8727 26.1506 52.2295 34.1113 49.6791C34.1113 49.7654 34.1128 49.8517 34.1152 49.9374L34.1357 50.079C26.2074 52.4941 18.6517 55.9979 11.7024 60.5022" fill="#8D734B"/>
<path d="M19.2178 10.376C19.386 10.947 19.5463 11.5178 19.7058 12.0887C19.2849 11.4437 18.857 10.8013 18.4228 10.1621C13.2396 8.81102 8.3888 8.61711 8.16774 9.15707C7.93009 9.74493 12.0048 13.4584 16.2658 16.9211C16.9819 16.8962 17.6996 16.8783 18.4212 16.8652C17.9104 17.0494 17.4019 17.2353 16.8943 17.4243C17.1927 17.6586 17.4904 17.8903 17.7888 18.1182C18.9478 18.0763 20.1147 18.0496 21.2832 18.0395C20.4471 18.3097 19.615 18.5904 18.7883 18.875C20.8363 20.3848 22.8275 21.6603 24.5171 22.2391C25.9721 22.7352 27.5551 23.4811 29.1239 24.2988C29.9829 24.3646 30.845 24.44 31.7096 24.5242C31.2122 24.6399 30.7171 24.7599 30.2229 24.8812C32.3009 25.998 34.3063 27.1727 36.0109 27.9341C36.1325 27.9162 36.2556 27.8991 36.3796 27.8803C36.3022 27.9201 36.224 27.9575 36.1475 27.997C38.0526 28.8285 39.5771 29.1187 40.3856 28.127C41.7167 26.5146 39.161 23.671 35.7851 20.7658C35.7314 21.1018 35.6777 21.437 35.624 21.773C35.5498 21.3251 35.4708 20.877 35.3911 20.4273C33.7149 18.9954 31.8762 17.5583 30.2821 16.1852C30.4258 16.9421 30.5624 17.6989 30.6919 18.4543C29.9813 17.1605 29.2439 15.8711 28.4797 14.5862C26.3574 12.8751 22.7849 11.3598 19.2178 10.376" fill="#FADE99"/>
<path d="M16.8942 17.4243C17.4019 17.2353 17.9103 17.0494 18.4212 16.8652C17.6995 16.8783 16.9819 16.8963 16.2658 16.9212C15.4691 16.2804 14.6844 15.6263 13.9351 14.9882L13.853 14.9174C12.6948 13.9312 11.6258 12.9799 10.7265 12.1407L10.6515 12.0699C9.06142 10.5845 8.03899 9.45819 8.16769 9.1571C8.29401 8.86239 9.83121 8.78461 12.0648 9.00698L12.1879 9.2124L12.0648 9.00698L12.1674 9.01795C13.4267 9.14769 14.9007 9.37497 16.4568 9.70157L16.5674 9.72405C17.1777 9.85619 17.7959 10.0011 18.4227 10.1622C18.857 10.8014 19.2849 11.4437 19.7057 12.0887C19.5462 11.5178 19.3859 10.947 19.2178 10.3761C19.8794 10.5611 20.5379 10.764 21.1884 10.9804C21.6898 11.9213 22.1769 12.8651 22.6498 13.8099C23.2056 14.9223 23.7417 16.0352 24.2573 17.15C23.0169 17.2453 21.7829 17.3599 20.5584 17.489C19.517 17.5987 18.4812 17.7224 17.4516 17.8561C17.2677 17.712 17.0798 17.5689 16.8942 17.4243" fill="#8D734B"/>
<path d="M44.2454 30.8818C44.1333 31.0693 44.0212 31.2546 43.9107 31.4421C33.5719 22.5153 21.9195 15.1656 9.33772 9.65409C21.9708 14.9548 33.7401 22.109 44.2454 30.8818Z" fill="#8D734B"/>
<path d="M35.2149 13.089L35.2482 13.12L35.2513 13.1816L35.2149 13.089Z" fill="#FADE99"/>
<path d="M12.3379 -2.312e-05C21.3747 1.93594 29.3994 7.71962 35.2142 13.089L35.2513 13.1816L35.2481 13.1199C41.209 18.6308 44.84 23.6911 44.8416 23.6926C44.8273 24.1946 44.6536 24.623 44.2889 24.9614C43.2759 25.9164 41.6756 25.3877 39.7444 24.2247C39.8329 24.1936 39.9221 24.1633 40.0105 24.1329C39.8755 24.1344 39.7405 24.1368 39.6047 24.1383C37.8796 23.0774 35.89 21.5312 33.8144 20.0354C34.3639 19.975 34.915 19.9166 35.466 19.8604C34.5478 19.6489 33.6328 19.446 32.7161 19.2546C31.1442 18.1522 29.5478 17.1272 28.0533 16.3891C26.3179 15.5272 24.3552 13.8737 22.3695 11.9587C23.302 11.7682 24.2367 11.5847 25.1786 11.4103C23.9154 11.2581 22.6569 11.121 21.4016 11.0034C21.115 10.7167 20.826 10.425 20.541 10.1308C21.115 9.99774 21.6882 9.86956 22.2653 9.74347C21.4868 9.65566 20.7115 9.57484 19.9339 9.49916C15.8481 5.17176 11.9961 0.600443 12.3379 -2.312e-05Z" fill="#FADE99"/>
<path d="M19.3686 8.89483C18.5538 8.02462 17.7564 7.15176 17.0079 6.31103L16.9006 6.19039L16.7885 6.06128C16.0084 5.17863 15.2892 4.33611 14.6623 3.57386L14.5904 3.4869C14.0323 2.80546 13.553 2.19177 13.1788 1.6722L13.1685 1.65587L13.0564 1.49875L12.9648 1.36652L12.9411 1.33074C12.473 0.641604 12.2424 0.166366 12.338 -8.43489e-05C17.7035 1.14951 22.7122 3.65498 27.1138 6.62457C27.1627 6.7662 27.2132 6.90683 27.2622 7.04754C27.6988 8.32236 28.1157 9.59726 28.5089 10.8706C27.158 10.7983 25.8134 10.7469 24.4752 10.7141C23.3391 10.6871 22.2045 10.6731 21.0787 10.6731C20.9003 10.4941 20.7195 10.3128 20.541 10.1308C21.115 9.99768 21.6882 9.8695 22.2653 9.74341C21.4869 9.6556 20.7116 9.57478 19.9339 9.4991C19.7428 9.29858 19.5573 9.09628 19.3686 8.89483Z" fill="#8D734B"/>
<path d="M46.933 26.741C37.653 16.6918 26.925 8.01926 15.0751 1.01271C26.989 7.80747 37.8456 16.288 47.3056 26.1871C47.1809 26.3724 47.0577 26.5559 46.933 26.741" fill="#8D734B"/>
<path d="M15.4297 16.5486C15.6294 17.1125 15.8268 17.6764 16.0186 18.2403C15.5591 17.6181 15.0917 16.9974 14.6172 16.3791C9.33616 15.3205 4.45458 15.4044 4.26273 15.9589C4.06061 16.5617 8.3698 20.0564 12.8519 23.2891C13.5696 23.2237 14.2888 23.1639 15.0128 23.1093C14.5099 23.3231 14.0109 23.5395 13.5119 23.7564C13.8254 23.9757 14.1396 24.1921 14.4507 24.402C15.612 24.2948 16.7797 24.2021 17.9553 24.1244C17.1303 24.444 16.3116 24.7715 15.4999 25.1051C17.6427 26.5045 19.7207 27.6698 21.4497 28.1543C22.9395 28.5703 24.5707 29.2275 26.1963 29.9588C27.0632 29.9749 27.9325 30.0022 28.8033 30.0365C28.3114 30.1818 27.8211 30.3298 27.334 30.4804C29.4854 31.4825 31.5674 32.5456 33.3233 33.2147C33.4457 33.1882 33.5672 33.1639 33.6904 33.1384C33.6154 33.1818 33.5412 33.2247 33.4646 33.269C35.425 33.993 36.9732 34.1984 37.7272 33.1578C38.9675 31.4616 36.2334 28.7523 32.6743 26.03C32.6404 26.37 32.6056 26.7099 32.5701 27.0505C32.469 26.6039 32.3656 26.1591 32.2582 25.7133C30.4921 24.3716 28.5625 23.0329 26.8784 21.7459C27.0679 22.4988 27.2503 23.2502 27.424 24.0022C26.6353 22.7438 25.8181 21.4907 24.9749 20.2453C22.7445 18.6487 19.0685 17.3325 15.4297 16.5486" fill="#FADE99"/>
<path d="M13.5119 23.7564C14.0109 23.5395 14.5098 23.3232 15.0128 23.1093C14.2888 23.164 13.5695 23.2238 12.8519 23.2891C12.015 22.6909 11.1876 22.0802 10.3965 21.4823L10.3128 21.4154C9.09061 20.4906 7.96081 19.5991 7.00865 18.8082L6.93049 18.7405C5.24487 17.3395 4.15138 16.2679 4.2627 15.9589C4.37403 15.6548 5.91121 15.4883 8.16607 15.5855L8.30345 15.7833L8.16607 15.5855L8.27029 15.5874C9.54221 15.6472 11.036 15.7903 12.619 16.0306L12.7295 16.047C13.35 16.1443 13.9793 16.253 14.6172 16.3791C15.0917 16.9974 15.5591 17.6181 16.0186 18.2404C15.8268 17.6765 15.6294 17.1125 15.4296 16.5486C16.1047 16.6957 16.7766 16.8637 17.4437 17.0418C18.0011 17.9587 18.5467 18.8781 19.0764 19.8006C19.7001 20.884 20.3025 21.9714 20.8884 23.0618C19.6472 23.2284 18.4164 23.4113 17.1942 23.6118C16.1536 23.7829 15.1225 23.9663 14.0977 24.1587C13.9043 24.0265 13.7085 23.8935 13.5119 23.7564" fill="#8D734B"/>
<path d="M41.5059 35.5107C41.3819 35.6857 41.2603 35.8631 41.1435 36.0427C30.3208 27.7849 18.298 21.1572 5.46597 16.3916C18.3619 20.9517 30.5095 27.3966 41.5059 35.5107Z" fill="#8D734B"/>
<path d="M13.6651 24.1383C13.879 24.6274 14.0898 25.1206 14.2983 25.6121C13.8474 25.085 13.3911 24.5591 12.9276 24.0356C8.14554 23.4113 3.79135 23.7843 3.65477 24.2917C3.51265 24.8432 7.58104 27.7007 11.7852 30.3143C12.4224 30.2115 13.0611 30.1143 13.7053 30.0232C13.2695 30.2441 12.8353 30.4665 12.4058 30.6922C12.6971 30.8687 12.9916 31.0429 13.2829 31.2123C14.3125 31.0429 15.3515 30.8897 16.396 30.7496C15.6799 31.0851 14.9693 31.4281 14.2651 31.7757C16.2673 32.8941 18.1937 33.8095 19.7688 34.1355C21.126 34.4153 22.6261 34.9033 24.1222 35.4569C24.8967 35.4195 25.6736 35.39 26.4552 35.3685C26.0257 35.5286 25.5962 35.6902 25.1699 35.8537C27.154 36.6181 29.0804 37.4418 30.6918 37.9304C30.7984 37.9015 30.9057 37.8714 31.0147 37.8417L30.8205 37.9708C32.6182 38.4988 34.0125 38.5884 34.6196 37.6117C35.6231 36.0217 33.0098 33.7685 29.6607 31.5548C29.6528 31.8589 29.6425 32.1661 29.633 32.4718C29.513 32.0805 29.393 31.6894 29.2699 31.2981C27.6063 30.2067 25.7999 29.1302 24.2154 28.0826C24.4317 28.7423 24.6417 29.4025 24.8438 30.063C24.0614 28.988 23.253 27.9186 22.4224 26.8585C20.3294 25.5672 16.9637 24.6159 13.6651 24.1383" fill="#FADE99"/>
<path d="M12.4058 30.6923C12.8353 30.4666 13.2696 30.2441 13.7054 30.0232C13.0611 30.1144 12.4224 30.2116 11.7853 30.3144C11.0005 29.8303 10.2252 29.3366 9.47987 28.8496L9.40013 28.7958C8.25139 28.0454 7.18554 27.3165 6.28628 26.6678L6.21126 26.6134C4.61959 25.4655 3.57507 24.5741 3.65481 24.2918C3.73534 24.0141 5.09725 23.7719 7.11763 23.7191L7.25107 23.8886L7.11763 23.7191L7.20922 23.7169C8.34929 23.6911 9.69147 23.7294 11.1205 23.8476L11.2215 23.8531C11.7837 23.9029 12.3529 23.9613 12.9277 24.0357C13.3911 24.5592 13.8475 25.0851 14.2983 25.6122C14.0899 25.1206 13.8791 24.6275 13.6651 24.1384C14.277 24.228 14.8881 24.3358 15.4936 24.4559C16.0502 25.2413 16.595 26.0285 17.1263 26.8188C17.7501 27.7491 18.3572 28.684 18.9493 29.6204C17.8495 29.8452 16.7616 30.0846 15.6831 30.3393C14.7673 30.5538 13.8562 30.7795 12.953 31.0159C12.7698 30.9092 12.5874 30.802 12.4058 30.6923" fill="#8D734B"/>
<path d="M38.4528 40.3735C28.1093 33.4665 16.7466 28.1471 4.75776 24.6035C16.8271 27.966 28.3256 33.1314 38.8483 39.9302C38.7141 40.0773 38.5767 40.2225 38.4528 40.3735" fill="#8D734B"/>
<path d="M11.0565 32.0806C11.336 32.5387 11.6123 32.9993 11.8847 33.459C11.366 32.9945 10.8433 32.5347 10.3136 32.0784C5.48883 32.0924 1.22544 33.0388 1.15991 33.5584C1.09122 34.1223 5.51253 36.4177 10.0357 38.4509C10.6547 38.265 11.2736 38.0845 11.8981 37.9071C11.4971 38.1848 11.0984 38.4634 10.7012 38.7441C11.0155 38.8787 11.3305 39.0139 11.6431 39.1425C12.6411 38.8389 13.6485 38.5503 14.6654 38.271C13.999 38.6998 13.3437 39.133 12.6932 39.5708C14.8288 40.414 16.8626 41.0657 18.4693 41.1817C19.8509 41.2805 21.4047 41.5643 22.9624 41.9143C23.7251 41.7761 24.4925 41.643 25.2615 41.5169C24.8581 41.7341 24.4562 41.9511 24.0551 42.1696C26.1252 42.6642 28.148 43.2265 29.8091 43.4973C29.9118 43.4538 30.0144 43.4095 30.117 43.3666L29.9426 43.5198C31.7948 43.8054 33.1914 43.7096 33.6596 42.6611C34.4357 40.953 31.5405 39.0662 27.9175 37.3147C27.9522 37.6188 27.9846 37.9244 28.0154 38.2276C27.8464 37.8542 27.6719 37.4833 27.4974 37.1107C25.7005 36.2521 23.7622 35.4221 22.0505 34.5944C22.3537 35.22 22.653 35.8459 22.9435 36.4745C22.019 35.5123 21.0731 34.5604 20.1052 33.6191C17.8558 32.6174 14.3914 32.1188 11.0565 32.0806" fill="#FADE99"/>
<path d="M10.7012 38.7441C11.0984 38.4634 11.4971 38.1848 11.8981 37.9071C11.2736 38.0845 10.6547 38.265 10.0357 38.451C9.19169 38.0761 8.35321 37.6872 7.55264 37.3037L7.46501 37.2608C6.22547 36.669 5.0712 36.0887 4.09062 35.5646L4.00771 35.5208C2.27393 34.5929 1.11807 33.8495 1.15992 33.5584C1.20018 33.2716 2.5163 32.8522 4.51062 32.5342L4.66776 32.6834L4.51062 32.5342L4.60222 32.5186C5.72886 32.3412 7.06394 32.2011 8.49455 32.1297L8.59717 32.1228C9.1593 32.0978 9.7317 32.0806 10.3136 32.0784C10.8433 32.5347 11.366 32.9945 11.8847 33.459C11.6123 32.9993 11.336 32.5387 11.0565 32.0806C11.6747 32.09 12.2953 32.1164 12.9127 32.1547C13.5711 32.8584 14.2178 33.5678 14.8525 34.2818C15.5978 35.1204 16.3266 35.9659 17.0395 36.8166C15.9847 37.1831 14.937 37.5641 13.9027 37.9594C13.0232 38.2938 12.1508 38.6375 11.2902 38.9915C11.0936 38.9092 10.8963 38.8274 10.7012 38.7441" fill="#8D734B"/>
<path d="M36.5121 43.6397C36.4206 43.8022 36.3329 43.9678 36.2485 44.1343C25.5134 39.0677 14.0764 35.5556 2.29368 33.7208C14.112 35.3731 25.6397 38.7137 36.5121 43.6397Z" fill="#8D734B"/>
<path d="M11.3147 41.9883C11.666 42.3211 12.0134 42.6565 12.3592 42.9931C11.8003 42.71 11.2365 42.4301 10.6704 42.1549C6.49153 43.2702 3.01767 45.0643 3.08478 45.5295C3.1582 46.0351 7.53132 47.0137 11.9321 47.7432C12.4224 47.4406 12.9174 47.1428 13.4172 46.8472C13.1361 47.1787 12.8551 47.5107 12.5771 47.8444C12.8819 47.8902 13.1866 47.9337 13.4859 47.9741C14.2817 47.4844 15.087 47.0018 15.901 46.53C15.4257 47.0526 14.9591 47.5783 14.4988 48.1072C16.5492 48.3499 18.4662 48.4478 19.8857 48.1829C21.1071 47.9511 22.5203 47.8429 23.9541 47.79C24.581 47.4968 25.2141 47.2058 25.8544 46.921C25.5536 47.2018 25.256 47.481 24.9607 47.7627C26.8713 47.7183 28.7567 47.7426 30.2615 47.5977C30.3413 47.5363 30.4187 47.474 30.4968 47.4127L30.3847 47.5852C32.0561 47.4102 33.2435 47.0074 33.4022 45.9925C33.673 44.3333 30.7187 43.3601 27.1658 42.6705C27.2669 42.9272 27.3672 43.183 27.4651 43.4398C27.2314 43.155 26.9922 42.8725 26.7521 42.5911C24.9931 42.2557 23.118 41.9789 21.4387 41.6529C21.85 42.126 22.2558 42.6012 22.6553 43.0788C21.6289 42.4556 20.5844 41.8468 19.5217 41.2524C17.3363 40.8976 14.2146 41.258 11.3147 41.9883" fill="#FADE99"/>
<path d="M12.5771 47.8444C12.855 47.5108 13.1361 47.1787 13.4171 46.8472C12.9174 47.1429 12.4223 47.4416 11.9321 47.7433C11.1118 47.6102 10.293 47.4665 9.50824 47.3163L9.4222 47.2999C8.20792 47.0697 7.06943 46.8302 6.09753 46.6005L6.01463 46.5805C4.29427 46.1737 3.11711 45.7918 3.08474 45.5296C3.05158 45.2728 4.09453 44.6086 5.74857 43.8761L5.9191 43.9709L5.74857 43.8761L5.82436 43.8418C6.75915 43.431 7.88264 43.005 9.10718 42.6143L9.19323 42.5857C9.67483 42.4356 10.1667 42.2901 10.6704 42.1549C11.2365 42.4302 11.8002 42.71 12.3592 42.9931C12.0134 42.6565 11.666 42.3211 11.3147 41.9884C11.8531 41.8544 12.3979 41.7356 12.9411 41.6265C13.6785 42.0871 14.4056 42.5529 15.1241 43.0275C15.9681 43.5844 16.8002 44.1498 17.6182 44.7247C16.7868 45.2862 15.9712 45.8546 15.1667 46.4328C14.4838 46.9241 13.8111 47.4221 13.1448 47.9268C12.9561 47.8979 12.7658 47.8724 12.5771 47.8444" fill="#8D734B"/>
<path d="M35.3935 46.071C35.3359 46.225 35.2767 46.3791 35.2214 46.5361C24.9663 44.7193 14.491 44.3374 4.10571 45.4129C14.5021 44.1718 25.0374 44.3927 35.3935 46.071" fill="#8D734B"/>
<path d="M13.6706 49.9375C14.0164 50.1574 14.3623 50.3808 14.7049 50.6047C14.1925 50.4576 13.6785 50.317 13.1622 50.1793C9.86911 51.7817 7.27793 53.8341 7.40978 54.2114C7.55584 54.6213 11.3566 54.7271 15.1391 54.6252C15.4968 54.2937 15.8592 53.9665 16.2263 53.639C16.0455 53.9617 15.8702 54.2822 15.6934 54.6049C15.9531 54.5958 16.2145 54.5818 16.4726 54.5678C17.0498 54.031 17.6411 53.5005 18.2404 52.9754C17.9309 53.488 17.6293 53.9985 17.3332 54.514C19.0812 54.3849 20.6918 54.1576 21.8295 53.7074C22.8069 53.3184 23.9644 53.0013 25.1494 52.7257C25.6216 52.3796 26.1016 52.0366 26.584 51.697C26.3819 51.9783 26.1806 52.259 25.9816 52.5401C27.5638 52.1955 29.1365 51.9115 30.365 51.5499L30.5316 51.357L30.4645 51.5186C31.8256 51.1042 32.747 50.5767 32.7099 49.7072C32.6617 48.2837 30.0413 47.9492 26.9716 47.9477C27.0972 48.1455 27.2235 48.342 27.3467 48.5405C27.1043 48.3414 26.8595 48.1455 26.6124 47.9486C25.0926 47.9541 23.4875 48.0263 22.0364 48.0255C22.4564 48.3524 22.874 48.683 23.2862 49.0156C22.3269 48.6626 21.3582 48.3241 20.376 48.0014C18.4993 48.0588 15.9618 48.8625 13.6706 49.9375Z" fill="#FADE99"/>
<path d="M15.6934 54.6049C15.8702 54.2822 16.0455 53.9617 16.2263 53.639C15.8592 53.9665 15.4968 54.2938 15.1391 54.6253C14.4365 54.6471 13.7299 54.6596 13.0532 54.6611H12.9767C11.929 54.6657 10.9429 54.6493 10.0957 54.6152L10.0231 54.6119C8.52298 54.5505 7.48004 54.4238 7.40977 54.2115C7.34188 54.003 8.09822 53.2805 9.35198 52.404L9.50988 52.456L9.35198 52.404L9.4104 52.3642C10.1194 51.8726 10.9831 51.3351 11.9369 50.8131L12.0048 50.7767C12.379 50.5743 12.7643 50.3728 13.1622 50.1793C13.6785 50.317 14.1925 50.4576 14.7049 50.6047C14.3623 50.3808 14.0164 50.1575 13.6706 49.9375C14.0962 49.7391 14.5296 49.5507 14.9639 49.3736C15.6539 49.6388 16.3353 49.9086 17.0111 50.1872C17.8077 50.5138 18.5909 50.8505 19.3686 51.1975C18.7709 51.7972 18.1875 52.4031 17.6151 53.0137C17.1264 53.5324 16.6471 54.055 16.1781 54.5809C16.0171 54.5888 15.8552 54.5988 15.6934 54.6049" fill="#8D734B"/>
<path d="M8.24116 53.9492C16.6653 51.2463 25.4447 49.7311 34.3205 49.4513C34.2944 49.54 34.2708 49.6287 34.2463 49.7156L34.2258 49.8666C25.4211 50.0167 16.6732 51.3873 8.24116 53.9492" fill="#8D734B"/>
<path d="M42.0735 20.0299C42.0735 20.0299 29.7404 37.7405 29.8107 52.8916L34.652 52.5197C34.652 52.5197 42.218 36.7257 50.4637 28.5773L42.0735 20.0299Z" fill="#8D734B"/>
<path d="M44.3695 22.3688L48.2563 26.3301L48.1426 26.2135C42.0617 33.1034 35.759 45.0482 33.1236 50.3075L32.2757 50.3728C33.2302 40.0888 41.1641 27.4324 44.3695 22.3688" fill="#FA9652"/>
<path d="M30.984 51.0006C31.6535 40.1456 40.2253 26.6033 43.4528 21.5062L43.4797 21.4634L44.3695 22.3688C41.164 27.4324 33.2302 40.0888 32.2756 50.3728L33.1236 50.3075C35.759 45.0482 42.0617 33.1034 48.1426 26.2135L49.0079 27.0939C42.9223 34.0228 36.584 46.1387 34.0797 51.1595L33.9241 51.4721L30.9406 51.7024L30.984 51.0006" fill="#8D734B"/>
<path d="M27.6829 63.7017C27.0719 64.2063 26.4734 64.7413 25.886 65.3022C25.3886 65.7807 24.8991 66.2769 24.4223 66.7955C24.4104 66.6998 24.397 66.6059 24.3899 66.5123C24.8667 65.8926 25.3602 65.2976 25.8678 64.7243C25.3515 65.0284 24.8383 65.3475 24.3291 65.6781C24.2943 64.9358 24.3228 64.2148 24.4049 63.5482C25.7005 62.3536 27.0513 61.288 28.4393 60.3501C29.1428 61.8604 29.9473 63.276 30.8331 64.5858C30.6602 65.4113 30.3989 66.3094 30.1107 67.2412C29.7112 66.7356 29.3236 66.2137 28.9501 65.6762C28.5088 65.0409 28.0856 64.3822 27.6829 63.7017" fill="#FADE99"/>
<path d="M28.4891 72.2232C28.066 73.4668 27.7186 74.3582 27.4825 74.3856C27.2488 74.4166 26.648 73.6512 26.0345 72.3897C26.4064 71.8583 26.7893 71.3451 27.1833 70.8472C27.608 71.3217 28.0454 71.7805 28.4891 72.2232Z" fill="#8D734B"/>
<path d="M26.0068 72.3303C25.6626 71.6172 25.3199 70.7507 25.0373 69.7955C25.7439 68.9104 26.4829 68.0773 27.2471 67.294C27.8961 68.1761 28.5806 69.0131 29.2904 69.801C29.0141 70.6465 28.7496 71.4593 28.5088 72.1638C28.058 71.7135 27.6143 71.2438 27.1784 70.7592C26.7774 71.2657 26.385 71.7874 26.0068 72.3303" fill="#8D734B"/>
<path d="M27.1832 70.8471C26.7893 71.3451 26.4064 71.8583 26.0345 72.3896L26.0069 72.3304C26.385 71.7875 26.7774 71.2658 27.1785 70.7593C27.6143 71.2439 28.058 71.7136 28.5089 72.1639L28.4891 72.2231C28.0454 71.7805 27.608 71.3216 27.1832 70.8471" fill="#8D734B"/>
<path d="M28.8673 67.5797C29.1168 67.9732 29.3749 68.359 29.6379 68.7361C29.5289 69.074 29.4184 69.4097 29.311 69.7402C29.1105 69.5163 28.9107 69.2885 28.7125 69.0576C28.2104 68.4648 27.7233 67.8489 27.2535 67.2079C26.6977 67.7726 26.1545 68.3666 25.6271 68.9868C25.4226 69.2295 25.2189 69.4774 25.0184 69.7272C24.8368 69.108 24.6805 68.4532 24.5652 67.7872C24.8384 67.3929 25.121 67.0079 25.4076 66.6315C25.0958 66.8359 24.7863 67.0447 24.4784 67.2592C24.4578 67.1046 24.4397 66.9495 24.4223 66.7955C24.8992 66.2769 25.3887 65.7807 25.8861 65.3022C26.4735 64.7414 27.0719 64.2063 27.683 63.7017C28.0857 64.3822 28.5089 65.0409 28.9502 65.6762C29.3236 66.2137 29.7129 66.7366 30.1108 67.2412C30.001 67.5943 29.8929 67.9492 29.776 68.3053C29.4705 68.0689 29.1673 67.8271 28.8673 67.5797" fill="#8D734B"/>
<path d="M25.0373 69.7955L25.0184 69.7271C25.2189 69.4774 25.4226 69.2295 25.6271 68.9867C26.1545 68.3666 26.6977 67.7726 27.2535 67.2078C27.7233 67.8489 28.2104 68.4648 28.7125 69.0575C28.9107 69.2885 29.1104 69.5163 29.311 69.7402L29.2904 69.801C28.5807 69.0132 27.8962 68.177 27.2472 67.2941C26.4829 68.0773 25.7439 68.9104 25.0373 69.7955Z" fill="#8D734B"/>
<path d="M24.4049 63.5481C24.5115 62.6879 24.7152 61.9195 25.0121 61.3204C25.3318 60.6827 25.6413 59.9711 25.965 59.2437C27.1367 58.4116 28.3367 57.668 29.5494 57.0124C30.0034 58.3073 30.5316 59.5448 31.1213 60.7176C31.0787 61.0746 31.0448 61.427 31.0306 61.7686C30.7005 61.3961 30.3768 61.0148 30.061 60.6253C30.3563 61.4598 30.6832 62.2695 31.0416 63.0535C31.0305 63.5202 30.9477 64.0366 30.8332 64.5857C29.9473 63.2759 29.1428 61.8603 28.4393 60.35C27.0514 61.2879 25.7005 62.3535 24.4049 63.5481Z" fill="#8D734B"/>
<path d="M29.5818 56.9331C28.8831 57.3077 28.1891 57.7109 27.503 58.1439C27.0025 58.4614 26.5043 58.7919 26.0124 59.1411C26.1356 58.8619 26.2619 58.582 26.3898 58.3034C26.828 57.9333 27.2725 57.5779 27.7233 57.2339C27.3917 57.3421 27.0585 57.4548 26.7285 57.5724C27.1193 56.7472 27.5354 55.9466 27.9728 55.2411C28.9715 54.703 29.9813 54.2223 30.9935 53.7961C31.2485 54.8571 31.5541 55.8852 31.9038 56.8764C31.8201 57.2294 31.7325 57.594 31.6456 57.9683C31.468 57.8118 31.2904 57.6547 31.1143 57.4953C31.269 57.7465 31.4246 57.9962 31.5817 58.2406C31.404 59.0222 31.239 59.8311 31.1348 60.6213C30.8869 60.1282 30.654 59.6242 30.429 59.1086C30.1234 58.4022 29.84 57.6766 29.5818 56.9331" fill="#FADE99"/>
<path d="M27.503 58.144C28.1891 57.7111 28.8831 57.3079 29.5818 56.9333C29.84 57.6768 30.1234 58.4023 30.429 59.1087C30.654 59.6243 30.8869 60.1284 31.1348 60.6215L31.1214 60.7178C30.5316 59.545 30.0034 58.3075 29.5495 57.0126C28.3368 57.6682 27.1367 58.4117 25.9651 59.2439L26.0124 59.1412C26.5043 58.7921 27.0025 58.4615 27.503 58.144Z" fill="#8D734B"/>
<path d="M31.0369 53.7192C30.3011 54.024 29.5708 54.359 28.8436 54.7248C28.5728 54.861 28.302 55.0001 28.032 55.1438C28.3083 54.703 28.5934 54.3032 28.8815 53.9577C28.9636 53.9361 29.0442 53.9151 29.1255 53.8942L28.9447 53.8854C29.814 52.8742 30.6966 52.393 31.5067 52.8353C32.6073 53.4436 32.3475 54.9503 31.9267 56.7766C31.8335 56.5114 31.742 56.2407 31.6567 55.9675C31.4246 55.2374 31.2161 54.4861 31.0369 53.7192" fill="#FA9652"/>
<path d="M27.9727 55.2412L28.032 55.144C28.302 55.0002 28.5728 54.8611 28.8436 54.725C29.5707 54.3592 30.301 54.0241 31.0369 53.7194C31.2161 54.4862 31.4245 55.2376 31.6566 55.9677C31.7419 56.2408 31.8335 56.5115 31.9266 56.7768L31.9038 56.8765C31.554 55.8853 31.2485 54.8572 30.9934 53.7962C29.9813 54.2224 28.9715 54.7031 27.9727 55.2412Z" fill="#FA9652"/>
<path d="M27.3853 73.6262C26.2697 64.5463 28.7535 55.404 34.3102 48.1003C34.4483 48.2053 34.5857 48.311 34.7223 48.4138C29.1104 55.5043 26.4418 64.5259 27.3853 73.6262" fill="#8D734B"/>
<path d="M33.5823 68.8831C33.0959 69.6873 32.6356 70.5189 32.199 71.3775C31.8287 72.1064 31.475 72.8569 31.1442 73.624C31.0945 73.5219 31.0447 73.4202 30.995 73.3175C31.2863 72.4355 31.6045 71.575 31.9471 70.7358C31.4869 71.2772 31.0353 71.8327 30.5947 72.4026C30.2615 71.5799 30.0034 70.7592 29.832 69.9744C30.8158 68.1317 31.9116 66.4105 33.0975 64.8205C34.4933 66.2455 35.9611 67.5267 37.4801 68.6606C37.6143 69.6554 37.6775 70.7701 37.7241 71.9274C37.0727 71.5145 36.4293 71.0758 35.7929 70.6145C35.0444 70.0701 34.3078 69.4929 33.5823 68.8831" fill="#8D734B"/>
<path d="M37.8828 78.1594C37.901 79.7244 37.8646 80.8592 37.6096 80.985C37.3617 81.1071 36.3803 80.4779 35.1858 79.2972C35.3934 78.5544 35.62 77.8279 35.8648 77.1163C36.5335 77.4858 37.2062 77.8328 37.8828 78.1594" fill="#FADE99"/>
<path d="M35.1298 79.2397C34.4595 78.5683 33.7292 77.7276 33.0304 76.7632C33.4742 75.4929 33.9731 74.2694 34.5234 73.0936C35.6051 73.8355 36.7064 74.5121 37.8196 75.125C37.8457 76.1838 37.871 77.2026 37.8828 78.0846C37.1936 77.7525 36.5075 77.397 35.8261 77.0197C35.5735 77.7446 35.3421 78.4853 35.1298 79.2397" fill="#8D734B"/>
<path d="M35.8648 77.1163C35.6201 77.8279 35.3935 78.5544 35.1858 79.2972L35.1298 79.2398C35.3421 78.4854 35.5735 77.7447 35.8261 77.0197C36.5075 77.3971 37.1936 77.7526 37.8828 78.0846V78.1594C37.2062 77.8328 36.5335 77.4858 35.8648 77.1163" fill="#8D734B"/>
<path d="M36.4592 72.7886C36.8974 73.1361 37.3403 73.4707 37.7864 73.7927C37.7975 74.2145 37.8085 74.635 37.818 75.0506C37.5038 74.8747 37.1872 74.6966 36.8737 74.5113C36.0716 74.0395 35.2765 73.533 34.4933 72.994C34.0938 73.8456 33.7204 74.7216 33.3746 75.623C33.2388 75.9761 33.1085 76.3331 32.9822 76.6931C32.5314 76.0654 32.0964 75.3888 31.6992 74.6842C31.8508 74.1358 32.0142 73.5944 32.1887 73.0593C31.9195 73.4084 31.655 73.7639 31.3921 74.1233C31.3076 73.9568 31.2271 73.7903 31.1442 73.6241C31.4766 72.8564 31.8287 72.1065 32.199 71.3776C32.6356 70.519 33.0959 69.6874 33.5822 68.8832C34.3078 69.493 35.0444 70.0702 35.7929 70.6146C36.4292 71.0759 37.0727 71.5146 37.724 71.9275C37.7414 72.3663 37.758 72.8095 37.7714 73.2528C37.3332 73.1082 36.8966 72.952 36.4592 72.7886" fill="#8D734B"/>
<path d="M33.0304 76.7633L32.9823 76.6931C33.1086 76.3331 33.2389 75.9761 33.3747 75.623C33.7205 74.7216 34.0939 73.8456 34.4934 72.994C35.2766 73.533 36.0717 74.0395 36.8738 74.5113C37.1872 74.6967 37.5038 74.8747 37.8181 75.0506L37.8196 75.1251C36.7064 74.5122 35.605 73.8356 34.5234 73.0937C33.9731 74.2695 33.4741 75.493 33.0304 76.7633" fill="#8D734B"/>
<path d="M29.8321 69.9745C29.6102 68.9694 29.5328 68.023 29.6299 67.2367C29.7342 66.3942 29.8013 65.4732 29.8747 64.5298C30.8624 63.1408 31.9148 61.8404 33.0225 60.6323C34.0473 61.9157 35.1321 63.1049 36.2658 64.1962C36.3582 64.6146 36.4608 65.0239 36.5793 65.4128C36.0606 65.1226 35.5442 64.8191 35.0318 64.501C35.6966 65.3271 36.389 66.1128 37.1027 66.8553C37.2764 67.3867 37.3909 67.9996 37.4801 68.6607C35.9611 67.5268 34.4934 66.2456 33.0975 64.8206C31.9116 66.4106 30.8158 68.1318 29.8321 69.9745" fill="#FA9652"/>
<path d="M33.0248 60.5305C32.3877 61.2226 31.7679 61.946 31.1671 62.6989C30.7289 63.248 30.3026 63.8127 29.8865 64.3937C29.9165 64.0352 29.9457 63.6712 29.9773 63.3072C30.3239 62.7198 30.6831 62.1481 31.0511 61.5881C30.7226 61.8379 30.3934 62.0921 30.0673 62.3519C30.181 61.274 30.3286 60.213 30.5418 59.2492C31.4513 58.2584 32.3948 57.3257 33.3667 56.4561C34.0741 57.5514 34.8281 58.5905 35.6153 59.5703C35.6626 60.0021 35.7076 60.4454 35.7589 60.899C35.4976 60.7924 35.2363 60.6827 34.9734 60.573C35.2465 60.7954 35.5221 61.0166 35.796 61.2311C35.9066 62.18 36.0432 63.1538 36.2429 64.0835C35.7668 63.6238 35.301 63.1468 34.8439 62.6515C34.2194 61.9755 33.6122 61.2685 33.0248 60.5305" fill="#8D734B"/>
<path d="M31.1672 62.6989C31.768 61.946 32.3878 61.2226 33.0249 60.5305C33.6123 61.2684 34.2194 61.9755 34.8439 62.6515C35.3011 63.1468 35.7669 63.6238 36.243 64.0835L36.2659 64.1962C35.1321 63.1048 34.0473 61.9157 33.0225 60.6323C31.9148 61.8403 30.8624 63.1407 29.8747 64.5298L29.8866 64.3937C30.3026 63.8127 30.729 63.248 31.1672 62.6989Z" fill="#8D734B"/>
<path d="M33.3818 56.3544C32.6759 56.9811 31.9875 57.6417 31.3132 58.3323C31.0637 58.5897 30.8158 58.8509 30.5687 59.1171C30.7053 58.5152 30.8656 57.9534 31.0527 57.4548C31.1364 57.3981 31.2193 57.3431 31.303 57.2883L31.0961 57.35C31.6701 55.8752 32.4722 54.9923 33.5586 55.1783C35.0413 55.4365 35.3461 57.2315 35.6019 59.4507C35.3911 59.1864 35.1826 58.9172 34.9758 58.6459C34.4231 57.91 33.891 57.1471 33.3818 56.3544" fill="#FADE99"/>
<path d="M30.5419 59.2493L30.5687 59.1171C30.8158 58.851 31.0637 58.5897 31.3132 58.3323C31.9875 57.6417 32.6759 56.9812 33.3817 56.3544C33.891 57.1471 34.4231 57.9101 34.9758 58.6459C35.1826 58.9172 35.3911 59.1864 35.6019 59.4507L35.6153 59.5704C34.8281 58.5906 34.0742 57.5506 33.3668 56.4562C32.3949 57.3258 31.4514 58.2585 30.5419 59.2493" fill="#FADE99"/>
<path d="M37.1982 80.1663C32.3284 70.3805 31.4837 59.1296 34.8312 48.7654C35.0286 48.8298 35.2228 48.8936 35.4194 48.9574C31.9266 59.1047 32.5156 70.2897 37.1982 80.1663" fill="#8D734B"/>
<path d="M27.589 50.622C27.589 53.5497 29.9987 55.9236 32.9696 55.9236C35.9406 55.9236 38.3502 53.5497 38.3502 50.622C38.3502 47.6949 35.9406 45.3205 32.9696 45.3205C29.9987 45.3205 27.589 47.6949 27.589 50.622" fill="#8D734B"/>
<path d="M29.5707 50.622C29.5707 52.4715 31.0914 53.9712 32.9696 53.9712C34.8471 53.9712 36.3685 52.4715 36.3685 50.622C36.3685 48.7723 34.8471 47.2736 32.9696 47.2736C31.0914 47.2736 29.5707 48.7723 29.5707 50.622" fill="#FA9652"/>
<path d="M31.0574 50.622C31.0574 51.6618 31.9132 52.5049 32.9696 52.5049C34.0267 52.5049 34.8826 51.6618 34.8826 50.622C34.8826 49.5812 34.0267 48.738 32.9696 48.738C31.9132 48.738 31.0574 49.5812 31.0574 50.622Z" fill="#8D734B"/>
</svg>
