<svg width="90" height="76" viewBox="0 0 90 76" fill="none" xmlns="http://www.w3.org/2000/svg">
<path d="M70.4188 19.5512C70.4188 19.5512 90.4268 18.4614 89.993 20.9139C89.561 23.3647 86.3155 33.0291 78.0956 34.8318C69.873 36.6346 48.3832 36.2026 48.3832 36.2026V24.6634L70.4188 19.5512" fill="#1F0C0D"/>
<path d="M71.2597 20.0534C71.2597 20.0534 88.9005 19.1956 87.9591 22.4535C87.0169 25.7132 82.2558 24.8652 80.2646 24.4109C80.2646 24.4109 86.1866 26.2794 83.5296 28.7142C80.8726 31.149 76.5568 27.8093 76.5568 27.8093C76.5568 27.8093 79.877 31.149 76.7231 32.0539C73.5656 32.9606 71.2633 29.3934 71.2633 29.3934C71.2633 29.3934 73.1629 33.0166 71.2597 33.3562C69.3619 33.6967 66.3706 30.1863 66.3706 30.1863C66.3706 30.1863 66.8142 34.0353 64.2683 34.0931C61.7215 34.15 61.0575 30.469 61.0575 30.469C61.0575 30.469 60.8371 34.0371 58.6254 34.0931C56.4075 34.15 55.7435 30.8654 55.7435 30.8654C55.7435 30.8654 55.3568 34.038 52.9212 34.0931C50.4846 34.15 50.8171 31.093 50.8171 31.093C50.8171 31.093 50.8748 33.8709 48.3832 34.094V23.9593L71.2597 20.0534" fill="#FADE99"/>
<path d="M65.9298 20.0277C65.9298 20.0277 79.0486 19.3885 78.3499 21.8135C77.6503 24.2376 74.1097 23.6056 72.6261 23.2687C72.6261 23.2687 77.0334 24.6581 75.0555 26.4697C73.0803 28.2805 69.8686 25.7942 69.8686 25.7942C69.8686 25.7942 72.3381 28.2805 69.9922 28.9534C67.6445 29.6281 65.9325 26.9747 65.9325 26.9747C65.9325 26.9747 67.3432 29.6699 65.9298 29.9223C64.5155 30.1748 62.2932 27.5649 62.2932 27.5649C62.2932 27.5649 62.6221 30.4273 60.7278 30.469C58.8353 30.5117 58.3401 27.7747 58.3401 27.7747C58.3401 27.7747 58.1766 30.4281 56.5303 30.4699C54.8822 30.5117 54.3889 28.0689 54.3889 28.0689C54.3889 28.0689 54.1008 30.4299 52.2892 30.4708C50.4776 30.5117 50.7238 28.2369 50.7238 28.2369C50.7238 28.2369 50.7665 30.3037 48.9139 30.4717V22.9318L65.9298 20.0277" fill="#8D734B"/>
<path d="M48.3832 20.5521C48.3832 20.5521 60.3553 20.5521 62.59 20.0481C64.8257 19.544 70.8846 18.6053 70.7397 20.0481C70.5957 21.4908 67.9271 25.7452 60.4264 25.3834C52.9256 25.0243 52.9256 25.0243 52.9256 25.0243L48.3832 25.4065V20.5521Z" fill="#5E2128"/>
<path d="M81.3011 22.2277C81.1758 22.7708 82.0807 23.4437 83.3226 23.73C84.5635 24.0171 85.6729 23.8082 85.7965 23.266C85.9227 22.7219 85.0186 22.049 83.7768 21.7628C82.5359 21.4756 81.4265 21.6837 81.3011 22.2277" fill="#8D734B"/>
<path d="M77.7356 25.9897C77.4858 26.4884 78.2076 27.3551 79.3463 27.9258C80.4859 28.4965 81.6122 28.5542 81.8611 28.0564C82.1118 27.5577 81.3917 26.6919 80.2521 26.1203C79.1125 25.5488 77.9862 25.4919 77.7356 25.9897Z" fill="#8D734B"/>
<path d="M72.9354 28.892C72.7282 29.3062 73.3274 30.0245 74.2705 30.4956C75.2128 30.9694 76.147 31.0183 76.3551 30.6058C76.5604 30.1925 75.963 29.4742 75.0199 29.0004C74.0741 28.5275 73.1434 28.4795 72.9354 28.892Z" fill="#8D734B"/>
<path d="M68.8677 30.3286C68.5103 30.6202 68.5885 31.3109 69.0437 31.8709C69.4988 32.43 70.1575 32.6478 70.5157 32.3571C70.8758 32.0656 70.7966 31.3757 70.3397 30.8148C69.8864 30.2548 69.2277 30.0379 68.8677 30.3286Z" fill="#8D734B"/>
<path d="M63.2363 30.3925C62.8328 30.4938 62.6594 31.1907 62.8479 31.9508C63.0381 32.7108 63.5199 33.2451 63.9235 33.1446C64.327 33.0433 64.4995 32.3463 64.3101 31.5854C64.1208 30.8263 63.639 30.292 63.2363 30.3925Z" fill="#8D734B"/>
<path d="M58.3401 30.3508C57.9232 30.3428 57.5774 30.9713 57.5623 31.7553C57.5472 32.5393 57.8752 33.1784 58.2921 33.1864C58.7045 33.1944 59.053 32.5642 59.0681 31.7811C59.0814 30.9979 58.7552 30.3561 58.3401 30.3508Z" fill="#8D734B"/>
<path d="M53.963 30.5774C53.6136 30.3507 52.9861 30.7018 52.5629 31.3605C52.138 32.0174 52.0776 32.7348 52.4278 32.9606C52.7745 33.1864 53.403 32.8344 53.8279 32.1766C54.251 31.5179 54.3132 30.8014 53.963 30.5774Z" fill="#8D734B"/>
<path d="M65.088 21.6339C65.088 22.4295 65.7325 23.0767 66.5307 23.0767C67.3272 23.0767 67.9726 22.4295 67.9726 21.6339C67.9726 20.8383 67.3272 20.1912 66.5307 20.1912C65.7325 20.1912 65.088 20.8383 65.088 21.6339Z" fill="#8D734B"/>
<path d="M65.8098 21.634C65.8098 22.0313 66.1325 22.354 66.5307 22.354C66.9281 22.354 67.2499 22.0313 67.2499 21.634C67.2499 21.2348 66.9281 20.9139 66.5307 20.9139C66.1325 20.9139 65.8098 21.2348 65.8098 21.634Z" fill="#1F0C0D"/>
<path d="M60.5437 21.6339C60.5437 22.1504 61.3348 22.5673 62.3091 22.5673C63.2843 22.5673 64.0736 22.1504 64.0736 21.6339C64.0736 21.1183 63.2843 20.6987 62.3091 20.6987C61.3348 20.6987 60.5437 21.1183 60.5437 21.6339Z" fill="#8D734B"/>
<path d="M56.9382 21.6339C56.9382 22.0357 57.5551 22.3628 58.3152 22.3628C59.0761 22.3628 59.6903 22.0357 59.6903 21.6339C59.6903 21.2312 59.0761 20.905 58.3152 20.905C57.5551 20.905 56.9382 21.2312 56.9382 21.6339Z" fill="#8D734B"/>
<path d="M53.7657 21.634C53.7657 21.9184 54.2013 22.1487 54.7391 22.1487C55.2769 22.1487 55.7134 21.9184 55.7134 21.634C55.7134 21.3495 55.2769 21.1184 54.7391 21.1184C54.2013 21.1184 53.7657 21.3495 53.7657 21.634Z" fill="#8D734B"/>
<path d="M19.582 19.5512C19.582 19.5512 -0.425983 18.4614 0.00692506 20.9139C0.438944 23.3647 3.68352 33.0291 11.9052 34.8318C20.1269 36.6346 41.6194 36.2026 41.6194 36.2026V24.6634L19.582 19.5512Z" fill="#1F0C0D"/>
<path d="M18.7392 20.0534C18.7392 20.0534 1.10111 19.1956 2.04249 22.4535C2.98386 25.7132 7.74406 24.8652 9.73615 24.4109C9.73615 24.4109 3.81145 26.2794 6.47112 28.7142C9.12813 31.149 13.4439 27.8093 13.4439 27.8093C13.4439 27.8093 10.1228 31.149 13.2794 32.0539C16.4351 32.9606 18.7365 29.3934 18.7365 29.3934C18.7365 29.3934 16.8396 33.0166 18.7392 33.3562C20.6389 33.6967 23.6283 30.1863 23.6283 30.1863C23.6283 30.1863 23.1856 34.0353 25.7324 34.0931C28.2792 34.15 28.9432 30.469 28.9432 30.469C28.9432 30.469 29.1637 34.0371 31.3771 34.0931C33.5923 34.15 34.2563 30.8654 34.2563 30.8654C34.2563 30.8654 34.643 34.038 37.0796 34.0931C39.5152 34.15 39.1819 31.093 39.1819 31.093C39.1819 31.093 39.1277 33.8709 41.6193 34.094V23.9593L18.7392 20.0534" fill="#FADE99"/>
<path d="M24.0719 20.0277C24.0719 20.0277 10.9513 19.3885 11.6509 21.8135C12.3523 24.2376 15.892 23.6056 17.3729 23.2687C17.3729 23.2687 12.9674 24.6581 14.9453 26.4697C16.9205 28.2805 20.1339 25.7942 20.1339 25.7942C20.1339 25.7942 17.6618 28.2805 20.0095 28.9534C22.3563 29.6281 24.0683 26.9747 24.0683 26.9747C24.0683 26.9747 22.6576 29.6699 24.0719 29.9223C25.4844 30.1748 27.7076 27.5649 27.7076 27.5649C27.7076 27.5649 27.3787 30.4273 29.2721 30.469C31.1647 30.5117 31.6607 27.7747 31.6607 27.7747C31.6607 27.7747 31.8242 30.4281 33.4705 30.4699C35.1186 30.5117 35.612 28.0689 35.612 28.0689C35.612 28.0689 35.9017 30.4299 37.7116 30.4708C39.5224 30.5117 39.2761 28.2369 39.2761 28.2369C39.2761 28.2369 39.2361 30.3037 41.0869 30.4717V22.9318L24.0719 20.0277Z" fill="#8D734B"/>
<path d="M41.6193 20.5521C41.6193 20.5521 29.6455 20.5521 27.4098 20.0481C25.1768 19.544 19.1179 18.6053 19.2602 20.0481C19.4059 21.4908 22.0745 25.7452 29.5753 25.3834C37.0742 25.0243 37.0743 25.0243 37.0743 25.0243L41.6193 25.4065V20.5521" fill="#5E2128"/>
<path d="M45 75.5767C40.8185 75.5767 37.4281 73.485 37.4281 69.3035V7.5719C37.4281 3.3895 40.8185 2.2733e-05 45 2.2733e-05C49.1824 2.2733e-05 52.5728 3.3895 52.5728 7.5719V69.3035C52.5728 73.485 49.1824 75.5767 45 75.5767" fill="#1F0C0D"/>
<path d="M56.2777 4.28915C53.61 3.92291 45.047 -0.547509 44.9999 7.13372C44.9999 7.13372 47.2622 10.7028 50.2908 10.1249C53.3194 9.54892 54.2572 8.68311 54.8332 7.45639C55.4119 6.23144 56.2777 4.28915 56.2777 4.28915Z" fill="#5E2128"/>
<path d="M33.7247 4.28915C36.3915 3.92291 44.9537 -0.547509 44.9999 7.13372C44.9999 7.13372 42.7376 10.7028 39.709 10.1249C36.6813 9.54892 35.7426 8.68311 35.1675 7.45639C34.5897 6.23144 33.7247 4.28915 33.7247 4.28915Z" fill="#5E2128"/>
<path d="M42.8986 52.2379L45 49.4129L47.1023 52.2379L45 55.0611L42.8986 52.2379ZM49.4838 55.0611L47.3841 52.2379L49.4838 49.4129H46.1912L48.2926 46.5896H45H41.7074L43.8097 49.4129H40.5162L42.6177 52.2379L40.5162 55.0611H43.8097L41.7074 57.8853H45H48.2926L46.1912 55.0611H49.4838Z" fill="#5E2128"/>
<path d="M41.7074 46.5896H45L42.8986 43.7664H37.4281V46.5896H41.7074Z" fill="#8D734B"/>
<path d="M40.5162 49.4128H43.8097L41.7074 46.5896H37.4281V49.4128H37.5437H40.5162" fill="#FADE99"/>
<path d="M39.6423 52.2378H42.6176L40.5161 49.4128H37.5436L39.6423 52.2378Z" fill="#8D734B"/>
<path d="M37.4281 49.413V49.5676L37.5437 49.413H37.4281Z" fill="#8D734B"/>
<path d="M45 57.8851H37.4281V60.7092H42.8986L45 57.8851Z" fill="#8D734B"/>
<path d="M40.5162 55.0611H37.4281V57.8853H41.7074L43.8097 55.0611H40.5162Z" fill="#FADE99"/>
<path d="M37.5436 55.061H40.5161L42.6176 52.2378H39.6423L37.5436 55.061Z" fill="#8D734B"/>
<path d="M37.4281 54.9081V55.061H37.5437L37.4281 54.9081Z" fill="#8D734B"/>
<path d="M44.9999 46.5896H52.5727V43.7664H47.1022L44.9999 46.5896Z" fill="#8D734B"/>
<path d="M49.4838 49.4128H52.5728V46.5896H48.2926L46.1912 49.4128H49.4838Z" fill="#FADE99"/>
<path d="M52.5727 49.5676V49.413H52.4572L52.5727 49.5676Z" fill="#8D734B"/>
<path d="M49.4837 49.4128L47.384 52.2378H50.3575L52.4571 49.4128H49.4837Z" fill="#8D734B"/>
<path d="M48.2925 57.8851H44.9999L47.1022 60.7092H52.5727V57.8851H48.2925Z" fill="#8D734B"/>
<path d="M49.4838 55.0611H46.1912L48.2926 57.8853H52.5728V55.0611H52.4572H49.4838Z" fill="#FADE99"/>
<path d="M52.5727 55.061V54.9081L52.4572 55.061H52.5727Z" fill="#8D734B"/>
<path d="M49.4837 55.061H52.4571L50.3575 52.2378H47.384L49.4837 55.061Z" fill="#8D734B"/>
<path d="M45 49.4128L42.8986 52.2378L45 55.061L47.1023 52.2378L45 49.4128Z" fill="#1F0C0D"/>
<path d="M39.6424 52.2378L37.5437 49.4128L37.4281 49.5675V52.2378H39.6424" fill="#8D734B"/>
<path d="M39.6424 52.2378H37.4281V54.9081L37.5437 55.061L39.6424 52.2378" fill="#8D734B"/>
<path d="M50.3575 52.2378H52.5728V49.5675L52.4572 49.4128L50.3575 52.2378" fill="#8D734B"/>
<path d="M50.3575 52.2378L52.4572 55.061L52.5728 54.9081V52.2378H50.3575" fill="#8D734B"/>
<path d="M48.2729 8.59241C46.9627 8.59241 45.976 7.52835 45.976 6.11851C45.976 4.70779 46.9627 3.64464 48.2729 3.64464C49.5912 3.64464 51.6242 4.7069 51.6242 6.11851C51.6242 7.53013 49.5912 8.59241 48.2729 8.59241Z" fill="#FADE99"/>
<path d="M50.5122 6.11864C50.5122 6.93646 49.273 7.59961 48.4534 7.59961C47.6365 7.59961 47.088 6.93646 47.088 6.11864C47.088 5.29994 47.6365 4.63681 48.4534 4.63681C49.273 4.63681 50.5122 5.29994 50.5122 6.11864Z" fill="#8D734B"/>
<path d="M41.7279 8.59241C40.4087 8.59241 38.3757 7.53013 38.3757 6.11851C38.3757 4.7069 40.4087 3.64464 41.7279 3.64464C43.0391 3.64464 44.0267 4.70779 44.0267 6.11851C44.0267 7.52835 43.0391 8.59241 41.7279 8.59241Z" fill="#FADE99"/>
<path d="M39.4904 6.11864C39.4904 6.93646 40.7286 7.59961 41.5473 7.59961C42.3652 7.59961 42.9136 6.93646 42.9136 6.11864C42.9136 5.29994 42.3652 4.63681 41.5473 4.63681C40.7286 4.63681 39.4904 5.29994 39.4904 6.11864Z" fill="#8D734B"/>
<path d="M44.9999 7.13375C40.6282 7.2422 38.989 9.18806 38.989 11.8397C38.989 14.4896 44.9999 17.6249 44.9999 17.6249C44.9999 17.6249 51.0118 14.4896 51.0118 11.8397C51.0118 9.18806 49.3735 7.2422 44.9999 7.13375Z" fill="#8D734B"/>
<path d="M45 10.1463C42.4185 10.2112 41.4496 11.3606 41.4496 12.9242C41.4496 14.4905 45 16.343 45 16.343C45 16.343 48.5512 14.4905 48.5512 12.9242C48.5512 11.3606 47.5841 10.2112 45 10.1463Z" fill="#FADE99"/>
<path d="M44.7777 22.4872C44.7777 18.7875 41.1269 15.7883 37.4281 15.7883V29.1853C41.1269 29.1853 44.7777 26.187 44.7777 22.4872Z" fill="#8D734B"/>
<path d="M45.224 22.4872C45.224 26.187 48.874 29.1853 52.5728 29.1853V15.7883C48.874 15.7883 45.224 18.7875 45.224 22.4872Z" fill="#8D734B"/>
<path d="M47.384 22.4873C47.384 25.0999 49.9593 27.2173 52.5727 27.2173V17.7564C49.9593 17.7564 47.384 19.8747 47.384 22.4873Z" fill="#8D734B"/>
<path d="M42.6177 22.4873C42.6177 25.0999 40.0407 27.2173 37.4281 27.2173V17.7564C40.0407 17.7564 42.6177 19.8747 42.6177 22.4873Z" fill="#8D734B"/>
<path d="M47.2338 24.8581C47.2338 27.036 46.2347 28.8014 44.9999 28.8014C43.7652 28.8014 42.767 27.036 42.767 24.8581C42.767 22.6802 43.7652 20.9157 44.9999 20.9157C46.2347 20.9157 47.2338 22.6802 47.2338 24.8581Z" fill="#1F0C0D"/>
<path d="M44.7777 35.8853C44.7777 39.5841 41.1269 42.5842 37.4281 42.5842V29.1854C41.1269 29.1854 44.7777 32.1856 44.7777 35.8853Z" fill="#8D734B"/>
<path d="M45.224 35.8853C45.224 32.1856 48.874 29.1854 52.5728 29.1854V42.5842C48.874 42.5842 45.224 39.5841 45.224 35.8853Z" fill="#8D734B"/>
<path d="M47.384 35.8853C47.384 33.2727 49.9593 31.1544 52.5727 31.1544V40.6152C49.9593 40.6152 47.384 38.4978 47.384 35.8853Z" fill="#8D734B"/>
<path d="M42.6177 35.8853C42.6177 33.2727 40.0407 31.1544 37.4281 31.1544V40.6152C40.0407 40.6152 42.6177 38.4978 42.6177 35.8853Z" fill="#8D734B"/>
<path d="M47.2338 33.5144C47.2338 31.3365 46.2347 29.572 44.9999 29.572C43.7652 29.572 42.767 31.3365 42.767 33.5144C42.767 35.6932 43.7652 37.4568 44.9999 37.4568C46.2347 37.4568 47.2338 35.6932 47.2338 33.5144Z" fill="#1F0C0D"/>
<path d="M37.4281 22.7131V35.6586C37.4281 35.6586 44.9751 35.4381 45 29.1854C44.9751 22.9353 37.4281 22.7131 37.4281 22.7131Z" fill="#8D734B"/>
<path d="M44.9999 29.1854C45.0274 35.4381 52.5727 35.6586 52.5727 35.6586V29.1854V22.7131C52.5727 22.7131 45.0274 22.9353 44.9999 29.1854Z" fill="#8D734B"/>
<path d="M38.9801 25.3639V33.0087C38.9801 33.0087 43.4363 32.878 43.4487 29.1854C43.4363 25.4937 38.9801 25.3639 38.9801 25.3639Z" fill="#FADE99"/>
<path d="M46.5511 29.1854C46.5645 32.878 51.0225 33.0087 51.0225 33.0087V29.1854V25.3639C51.0225 25.3639 46.5645 25.4937 46.5511 29.1854Z" fill="#FADE99"/>
<path d="M40.1447 27.3585V31.0138C40.1447 31.0138 42.2763 30.9525 42.2852 29.1853C42.2763 27.4207 40.1447 27.3585 40.1447 27.3585" fill="#1F0C0D"/>
<path d="M47.7156 29.1853C47.7262 30.9525 49.8552 31.0138 49.8552 31.0138V29.1853V27.3585C49.8552 27.3585 47.7262 27.4207 47.7156 29.1853Z" fill="#1F0C0D"/>
<path d="M47.4463 65.5246C47.4632 69.7568 52.5728 69.9053 52.5728 69.9053V65.5246V61.1422C52.5728 61.1422 47.4632 61.2916 47.4463 65.5246Z" fill="#8D734B"/>
<path d="M48.4952 65.5248C48.5059 68.0236 51.522 68.1116 51.522 68.1116V65.5248V62.9371C51.522 62.9371 48.5059 63.0251 48.4952 65.5248Z" fill="#FADE99"/>
<path d="M42.5537 65.5246C42.5376 69.7568 37.4281 69.9053 37.4281 69.9053V65.5246V61.1422C37.4281 61.1422 42.5376 61.2916 42.5537 65.5246Z" fill="#8D734B"/>
<path d="M41.5056 65.5248C41.4949 68.0236 38.4779 68.1116 38.4779 68.1116V65.5248V62.9371C38.4779 62.9371 41.4949 63.0251 41.5056 65.5248Z" fill="#FADE99"/>
<path d="M8.69882 22.2277C8.82682 22.7708 7.92099 23.4437 6.67827 23.73C5.43733 24.0171 4.32706 23.8082 4.2035 23.266C4.07816 22.7219 4.9822 22.049 6.22314 21.7628C7.46675 21.4756 8.57437 21.6837 8.69882 22.2277" fill="#8D734B"/>
<path d="M12.2652 25.9897C12.5141 26.4884 11.7932 27.3551 10.6554 27.9258C9.51576 28.4965 8.38682 28.5542 8.1397 28.0564C7.88724 27.5577 8.60905 26.6919 9.75043 26.1203C10.8874 25.5488 12.0136 25.4919 12.2652 25.9897Z" fill="#8D734B"/>
<path d="M17.0655 28.892C17.2726 29.3062 16.6752 30.0245 15.7303 30.4956C14.788 30.9694 13.8529 31.0183 13.6475 30.6058C13.4395 30.1925 14.0369 29.4742 14.9827 29.0004C15.9259 28.5275 16.8592 28.4795 17.0655 28.892Z" fill="#8D734B"/>
<path d="M21.1349 30.3286C21.4905 30.6202 21.4132 31.3109 20.9571 31.8709C20.502 32.43 19.8433 32.6478 19.4842 32.3571C19.1268 32.0656 19.2051 31.3757 19.6593 30.8148C20.1136 30.2548 20.774 30.0379 21.1349 30.3286" fill="#8D734B"/>
<path d="M26.7645 30.3925C27.168 30.4938 27.3414 31.1907 27.152 31.9508C26.9618 32.7108 26.4818 33.2451 26.0764 33.1446C25.6755 33.0433 25.5013 32.3463 25.6924 31.5854C25.88 30.8263 26.3618 30.292 26.7645 30.3925Z" fill="#8D734B"/>
<path d="M31.6607 30.3508C32.0767 30.3428 32.4251 30.9713 32.4394 31.7553C32.4527 32.5393 32.1273 33.1784 31.7104 33.1864C31.2953 33.1944 30.9477 32.5642 30.9317 31.7811C30.9193 30.9979 31.2455 30.3561 31.6607 30.3508Z" fill="#8D734B"/>
<path d="M36.0369 30.5774C36.3871 30.3507 37.0138 30.7018 37.4379 31.3605C37.8645 32.0174 37.9223 32.7348 37.5747 32.9606C37.2245 33.1864 36.5978 32.8344 36.1729 32.1766C35.7489 31.5179 35.6876 30.8014 36.0369 30.5774Z" fill="#8D734B"/>
<path d="M24.9147 21.6339C24.9147 22.4295 24.2684 23.0767 23.4702 23.0767C22.6737 23.0767 22.0283 22.4295 22.0283 21.6339C22.0283 20.8383 22.6737 20.1912 23.4702 20.1912C24.2684 20.1912 24.9147 20.8383 24.9147 21.6339Z" fill="#8D734B"/>
<path d="M24.1911 21.634C24.1911 22.0313 23.8684 22.354 23.4702 22.354C23.0719 22.354 22.7501 22.0313 22.7501 21.634C22.7501 21.2348 23.0719 20.9139 23.4702 20.9139C23.8684 20.9139 24.1911 21.2348 24.1911 21.634Z" fill="#1F0C0D"/>
<path d="M29.4562 21.6339C29.4562 22.1504 28.665 22.5673 27.6917 22.5673C26.7156 22.5673 25.9263 22.1504 25.9263 21.6339C25.9263 21.1183 26.7156 20.6987 27.6917 20.6987C28.665 20.6987 29.4562 21.1183 29.4562 21.6339Z" fill="#8D734B"/>
<path d="M33.0626 21.6339C33.0626 22.0357 32.4448 22.3628 31.6856 22.3628C30.9256 22.3628 30.3096 22.0357 30.3096 21.6339C30.3096 21.2312 30.9256 20.905 31.6856 20.905C32.4448 20.905 33.0626 21.2312 33.0626 21.6339Z" fill="#8D734B"/>
<path d="M36.2342 21.634C36.2342 21.9184 35.7996 22.1487 35.2609 22.1487C34.724 22.1487 34.2875 21.9184 34.2875 21.634C34.2875 21.3495 34.724 21.1184 35.2609 21.1184C35.7996 21.1184 36.2342 21.3495 36.2342 21.634Z" fill="#8D734B"/>
</svg>
